<mxfile host="www.draw.io" modified="2019-12-13T02:34:39.625Z" agent="Mozilla/5.0 (Windows NT 10.0; Win64; x64) AppleWebKit/537.36 (KHTML, like Gecko) Chrome/78.0.3904.108 Safari/537.36" etag="f66HGxNdj92xPHJ9Lroq" version="12.4.1" type="github" pages="1">
  <diagram id="Jsy2v6kFsHN0Tos_MrRF" name="Page-1">
    <mxGraphModel dx="1955" dy="1005" grid="1" gridSize="10" guides="1" tooltips="1" connect="1" arrows="1" fold="1" page="1" pageScale="1" pageWidth="2339" pageHeight="3300" math="0" shadow="0">
      <root>
        <mxCell id="0"/>
        <mxCell id="1" parent="0"/>
        <mxCell id="H5Gk33Srun6ujfu2EQyN-14" style="edgeStyle=orthogonalEdgeStyle;orthogonalLoop=1;jettySize=auto;html=1;exitX=1;exitY=0.5;exitDx=0;exitDy=0;entryX=0;entryY=0.5;entryDx=0;entryDy=0;rounded=1;" parent="1" source="H5Gk33Srun6ujfu2EQyN-1" target="H5Gk33Srun6ujfu2EQyN-2" edge="1">
          <mxGeometry relative="1" as="geometry"/>
        </mxCell>
        <mxCell id="H5Gk33Srun6ujfu2EQyN-1" value="s" style="ellipse;whiteSpace=wrap;html=1;aspect=fixed;" parent="1" vertex="1">
          <mxGeometry x="110" y="130" width="80" height="80" as="geometry"/>
        </mxCell>
        <mxCell id="H5Gk33Srun6ujfu2EQyN-16" style="edgeStyle=orthogonalEdgeStyle;curved=1;orthogonalLoop=1;jettySize=auto;html=1;exitX=1;exitY=0.5;exitDx=0;exitDy=0;entryX=0;entryY=0.5;entryDx=0;entryDy=0;" parent="1" source="H5Gk33Srun6ujfu2EQyN-2" target="H5Gk33Srun6ujfu2EQyN-3" edge="1">
          <mxGeometry relative="1" as="geometry"/>
        </mxCell>
        <mxCell id="H5Gk33Srun6ujfu2EQyN-2" value="q0" style="ellipse;whiteSpace=wrap;html=1;aspect=fixed;" parent="1" vertex="1">
          <mxGeometry x="250" y="130" width="80" height="80" as="geometry"/>
        </mxCell>
        <mxCell id="H5Gk33Srun6ujfu2EQyN-18" style="edgeStyle=orthogonalEdgeStyle;curved=1;orthogonalLoop=1;jettySize=auto;html=1;exitX=1;exitY=0.5;exitDx=0;exitDy=0;" parent="1" source="H5Gk33Srun6ujfu2EQyN-3" target="H5Gk33Srun6ujfu2EQyN-4" edge="1">
          <mxGeometry relative="1" as="geometry"/>
        </mxCell>
        <mxCell id="H5Gk33Srun6ujfu2EQyN-3" value="q1" style="ellipse;whiteSpace=wrap;html=1;aspect=fixed;" parent="1" vertex="1">
          <mxGeometry x="390" y="130" width="80" height="80" as="geometry"/>
        </mxCell>
        <mxCell id="H5Gk33Srun6ujfu2EQyN-31" style="edgeStyle=orthogonalEdgeStyle;curved=1;orthogonalLoop=1;jettySize=auto;html=1;exitX=0.5;exitY=0;exitDx=0;exitDy=0;entryX=0;entryY=0.5;entryDx=0;entryDy=0;" parent="1" source="H5Gk33Srun6ujfu2EQyN-4" target="H5Gk33Srun6ujfu2EQyN-29" edge="1">
          <mxGeometry relative="1" as="geometry"/>
        </mxCell>
        <mxCell id="H5Gk33Srun6ujfu2EQyN-34" style="edgeStyle=orthogonalEdgeStyle;curved=1;orthogonalLoop=1;jettySize=auto;html=1;exitX=0.5;exitY=1;exitDx=0;exitDy=0;" parent="1" source="H5Gk33Srun6ujfu2EQyN-4" target="H5Gk33Srun6ujfu2EQyN-27" edge="1">
          <mxGeometry relative="1" as="geometry">
            <Array as="points">
              <mxPoint x="571" y="230"/>
            </Array>
          </mxGeometry>
        </mxCell>
        <mxCell id="H5Gk33Srun6ujfu2EQyN-4" value="q2" style="ellipse;whiteSpace=wrap;html=1;aspect=fixed;" parent="1" vertex="1">
          <mxGeometry x="530" y="130" width="80" height="80" as="geometry"/>
        </mxCell>
        <mxCell id="H5Gk33Srun6ujfu2EQyN-24" style="edgeStyle=orthogonalEdgeStyle;curved=1;orthogonalLoop=1;jettySize=auto;html=1;exitX=0.5;exitY=1;exitDx=0;exitDy=0;entryX=0.5;entryY=0;entryDx=0;entryDy=0;" parent="1" edge="1">
          <mxGeometry relative="1" as="geometry">
            <mxPoint x="700" y="150.35294117647072" as="sourcePoint"/>
            <mxPoint x="700" y="179.76470588235293" as="targetPoint"/>
          </mxGeometry>
        </mxCell>
        <mxCell id="H5Gk33Srun6ujfu2EQyN-13" style="edgeStyle=orthogonalEdgeStyle;curved=1;orthogonalLoop=1;jettySize=auto;html=1;exitX=0;exitY=0;exitDx=0;exitDy=0;entryX=0.5;entryY=0;entryDx=0;entryDy=0;" parent="1" source="H5Gk33Srun6ujfu2EQyN-1" target="H5Gk33Srun6ujfu2EQyN-1" edge="1">
          <mxGeometry relative="1" as="geometry">
            <Array as="points">
              <mxPoint x="122" y="90"/>
              <mxPoint x="150" y="90"/>
            </Array>
          </mxGeometry>
        </mxCell>
        <mxCell id="H5Gk33Srun6ujfu2EQyN-15" style="edgeStyle=orthogonalEdgeStyle;curved=1;orthogonalLoop=1;jettySize=auto;html=1;exitX=0;exitY=0;exitDx=0;exitDy=0;entryX=0.5;entryY=0;entryDx=0;entryDy=0;" parent="1" source="H5Gk33Srun6ujfu2EQyN-2" target="H5Gk33Srun6ujfu2EQyN-2" edge="1">
          <mxGeometry relative="1" as="geometry">
            <Array as="points">
              <mxPoint x="262" y="90"/>
              <mxPoint x="290" y="90"/>
            </Array>
          </mxGeometry>
        </mxCell>
        <mxCell id="H5Gk33Srun6ujfu2EQyN-17" style="edgeStyle=orthogonalEdgeStyle;curved=1;orthogonalLoop=1;jettySize=auto;html=1;exitX=0;exitY=0;exitDx=0;exitDy=0;entryX=0.5;entryY=0;entryDx=0;entryDy=0;" parent="1" source="H5Gk33Srun6ujfu2EQyN-3" target="H5Gk33Srun6ujfu2EQyN-3" edge="1">
          <mxGeometry relative="1" as="geometry">
            <Array as="points">
              <mxPoint x="402" y="90"/>
              <mxPoint x="430" y="90"/>
            </Array>
          </mxGeometry>
        </mxCell>
        <mxCell id="H5Gk33Srun6ujfu2EQyN-25" style="edgeStyle=orthogonalEdgeStyle;curved=1;orthogonalLoop=1;jettySize=auto;html=1;exitX=0.5;exitY=0;exitDx=0;exitDy=0;entryX=1;entryY=0;entryDx=0;entryDy=0;" parent="1" edge="1">
          <mxGeometry relative="1" as="geometry">
            <mxPoint x="700" y="70.35294117647072" as="sourcePoint"/>
            <mxPoint x="728.2352941176471" y="82.11764705882365" as="targetPoint"/>
            <Array as="points">
              <mxPoint x="700" y="30"/>
              <mxPoint x="729" y="30"/>
            </Array>
          </mxGeometry>
        </mxCell>
        <mxCell id="H5Gk33Srun6ujfu2EQyN-33" style="edgeStyle=orthogonalEdgeStyle;curved=1;orthogonalLoop=1;jettySize=auto;html=1;exitX=0;exitY=1;exitDx=0;exitDy=0;entryX=0.5;entryY=1;entryDx=0;entryDy=0;" parent="1" source="H5Gk33Srun6ujfu2EQyN-27" target="H5Gk33Srun6ujfu2EQyN-2" edge="1">
          <mxGeometry relative="1" as="geometry"/>
        </mxCell>
        <mxCell id="H5Gk33Srun6ujfu2EQyN-35" style="edgeStyle=orthogonalEdgeStyle;curved=1;orthogonalLoop=1;jettySize=auto;html=1;exitX=0.5;exitY=1;exitDx=0;exitDy=0;entryX=0.5;entryY=1;entryDx=0;entryDy=0;" parent="1" source="H5Gk33Srun6ujfu2EQyN-27" target="H5Gk33Srun6ujfu2EQyN-1" edge="1">
          <mxGeometry relative="1" as="geometry"/>
        </mxCell>
        <mxCell id="H5Gk33Srun6ujfu2EQyN-27" value="a1" style="ellipse;shape=doubleEllipse;whiteSpace=wrap;html=1;" parent="1" vertex="1">
          <mxGeometry x="660" y="180" width="80" height="80" as="geometry"/>
        </mxCell>
        <mxCell id="H5Gk33Srun6ujfu2EQyN-29" value="a0" style="ellipse;shape=doubleEllipse;whiteSpace=wrap;html=1;" parent="1" vertex="1">
          <mxGeometry x="660" y="70" width="80" height="80" as="geometry"/>
        </mxCell>
        <mxCell id="H5Gk33Srun6ujfu2EQyN-39" value="r" style="text;html=1;align=center;verticalAlign=middle;resizable=0;points=[];;autosize=1;" parent="1" vertex="1">
          <mxGeometry x="143" y="61" width="20" height="20" as="geometry"/>
        </mxCell>
        <mxCell id="H5Gk33Srun6ujfu2EQyN-40" value="r" style="text;html=1;align=center;verticalAlign=middle;resizable=0;points=[];;autosize=1;" parent="1" vertex="1">
          <mxGeometry x="286" y="68" width="20" height="20" as="geometry"/>
        </mxCell>
        <mxCell id="H5Gk33Srun6ujfu2EQyN-41" value="r" style="text;html=1;align=center;verticalAlign=middle;resizable=0;points=[];;autosize=1;" parent="1" vertex="1">
          <mxGeometry x="424" y="72" width="20" height="20" as="geometry"/>
        </mxCell>
        <mxCell id="H5Gk33Srun6ujfu2EQyN-42" value="r" style="text;html=1;align=center;verticalAlign=middle;resizable=0;points=[];;autosize=1;" parent="1" vertex="1">
          <mxGeometry x="611" y="82" width="20" height="20" as="geometry"/>
        </mxCell>
        <mxCell id="H5Gk33Srun6ujfu2EQyN-43" value="r" style="text;html=1;align=center;verticalAlign=middle;resizable=0;points=[];;autosize=1;" parent="1" vertex="1">
          <mxGeometry x="680" y="20" width="20" height="20" as="geometry"/>
        </mxCell>
        <mxCell id="H5Gk33Srun6ujfu2EQyN-44" value="r" style="text;html=1;align=center;verticalAlign=middle;resizable=0;points=[];;autosize=1;" parent="1" vertex="1">
          <mxGeometry x="424" y="290" width="20" height="20" as="geometry"/>
        </mxCell>
        <mxCell id="H5Gk33Srun6ujfu2EQyN-45" value="g" style="text;html=1;align=center;verticalAlign=middle;resizable=0;points=[];;autosize=1;" parent="1" vertex="1">
          <mxGeometry x="455" y="250" width="20" height="20" as="geometry"/>
        </mxCell>
        <mxCell id="H5Gk33Srun6ujfu2EQyN-46" value="g" style="text;html=1;align=center;verticalAlign=middle;resizable=0;points=[];;autosize=1;" parent="1" vertex="1">
          <mxGeometry x="621" y="206" width="20" height="20" as="geometry"/>
        </mxCell>
        <mxCell id="H5Gk33Srun6ujfu2EQyN-47" value="g" style="text;html=1;align=center;verticalAlign=middle;resizable=0;points=[];;autosize=1;" parent="1" vertex="1">
          <mxGeometry x="710" y="155" width="20" height="20" as="geometry"/>
        </mxCell>
        <mxCell id="H5Gk33Srun6ujfu2EQyN-48" value="1" style="text;html=1;align=center;verticalAlign=middle;resizable=0;points=[];;autosize=1;" parent="1" vertex="1">
          <mxGeometry x="34" y="30" width="20" height="20" as="geometry"/>
        </mxCell>
        <mxCell id="H5Gk33Srun6ujfu2EQyN-76" value="g" style="text;html=1;align=center;verticalAlign=middle;resizable=0;points=[];;autosize=1;" parent="1" vertex="1">
          <mxGeometry x="210" y="145" width="20" height="20" as="geometry"/>
        </mxCell>
        <mxCell id="H5Gk33Srun6ujfu2EQyN-77" value="g" style="text;html=1;align=center;verticalAlign=middle;resizable=0;points=[];;autosize=1;" parent="1" vertex="1">
          <mxGeometry x="350" y="145" width="20" height="20" as="geometry"/>
        </mxCell>
        <mxCell id="H5Gk33Srun6ujfu2EQyN-78" value="g" style="text;html=1;align=center;verticalAlign=middle;resizable=0;points=[];;autosize=1;" parent="1" vertex="1">
          <mxGeometry x="490" y="150" width="20" height="20" as="geometry"/>
        </mxCell>
        <mxCell id="H5Gk33Srun6ujfu2EQyN-79" style="edgeStyle=orthogonalEdgeStyle;orthogonalLoop=1;jettySize=auto;html=1;exitX=1;exitY=0.5;exitDx=0;exitDy=0;entryX=0;entryY=0.5;entryDx=0;entryDy=0;rounded=1;" parent="1" source="H5Gk33Srun6ujfu2EQyN-80" target="H5Gk33Srun6ujfu2EQyN-82" edge="1">
          <mxGeometry relative="1" as="geometry"/>
        </mxCell>
        <mxCell id="H5Gk33Srun6ujfu2EQyN-80" value="s" style="ellipse;whiteSpace=wrap;html=1;aspect=fixed;" parent="1" vertex="1">
          <mxGeometry x="235" y="460" width="80" height="80" as="geometry"/>
        </mxCell>
        <mxCell id="hTNmZNLpJQOjZrtLU-wa-47" style="edgeStyle=orthogonalEdgeStyle;rounded=0;orthogonalLoop=1;jettySize=auto;html=1;exitX=1;exitY=0.5;exitDx=0;exitDy=0;entryX=0;entryY=0.5;entryDx=0;entryDy=0;" edge="1" parent="1" source="H5Gk33Srun6ujfu2EQyN-82" target="hTNmZNLpJQOjZrtLU-wa-44">
          <mxGeometry relative="1" as="geometry"/>
        </mxCell>
        <mxCell id="H5Gk33Srun6ujfu2EQyN-82" value="q0" style="ellipse;whiteSpace=wrap;html=1;aspect=fixed;" parent="1" vertex="1">
          <mxGeometry x="375" y="460" width="80" height="80" as="geometry"/>
        </mxCell>
        <mxCell id="hTNmZNLpJQOjZrtLU-wa-58" style="edgeStyle=orthogonalEdgeStyle;rounded=0;orthogonalLoop=1;jettySize=auto;html=1;exitX=0.5;exitY=0;exitDx=0;exitDy=0;curved=1;" edge="1" parent="1" source="H5Gk33Srun6ujfu2EQyN-87" target="hTNmZNLpJQOjZrtLU-wa-57">
          <mxGeometry relative="1" as="geometry"/>
        </mxCell>
        <mxCell id="hTNmZNLpJQOjZrtLU-wa-59" style="edgeStyle=orthogonalEdgeStyle;curved=1;rounded=0;orthogonalLoop=1;jettySize=auto;html=1;exitX=0.5;exitY=1;exitDx=0;exitDy=0;entryX=0;entryY=0.5;entryDx=0;entryDy=0;" edge="1" parent="1" source="H5Gk33Srun6ujfu2EQyN-87" target="hTNmZNLpJQOjZrtLU-wa-56">
          <mxGeometry relative="1" as="geometry"/>
        </mxCell>
        <mxCell id="H5Gk33Srun6ujfu2EQyN-87" value="q2" style="ellipse;whiteSpace=wrap;html=1;aspect=fixed;" parent="1" vertex="1">
          <mxGeometry x="655" y="460" width="80" height="80" as="geometry"/>
        </mxCell>
        <mxCell id="H5Gk33Srun6ujfu2EQyN-89" style="edgeStyle=orthogonalEdgeStyle;curved=1;orthogonalLoop=1;jettySize=auto;html=1;exitX=0;exitY=0;exitDx=0;exitDy=0;entryX=0.5;entryY=0;entryDx=0;entryDy=0;" parent="1" source="H5Gk33Srun6ujfu2EQyN-80" target="H5Gk33Srun6ujfu2EQyN-80" edge="1">
          <mxGeometry relative="1" as="geometry">
            <Array as="points">
              <mxPoint x="247" y="420"/>
              <mxPoint x="275" y="420"/>
            </Array>
          </mxGeometry>
        </mxCell>
        <mxCell id="H5Gk33Srun6ujfu2EQyN-90" style="edgeStyle=orthogonalEdgeStyle;curved=1;orthogonalLoop=1;jettySize=auto;html=1;exitX=0;exitY=0;exitDx=0;exitDy=0;entryX=0.5;entryY=0;entryDx=0;entryDy=0;" parent="1" source="H5Gk33Srun6ujfu2EQyN-82" target="H5Gk33Srun6ujfu2EQyN-82" edge="1">
          <mxGeometry relative="1" as="geometry">
            <Array as="points">
              <mxPoint x="387" y="420"/>
              <mxPoint x="415" y="420"/>
            </Array>
          </mxGeometry>
        </mxCell>
        <mxCell id="H5Gk33Srun6ujfu2EQyN-93" style="edgeStyle=orthogonalEdgeStyle;curved=1;orthogonalLoop=1;jettySize=auto;html=1;exitX=0;exitY=1;exitDx=0;exitDy=0;entryX=0.5;entryY=1;entryDx=0;entryDy=0;" parent="1" target="H5Gk33Srun6ujfu2EQyN-82" edge="1">
          <mxGeometry relative="1" as="geometry">
            <mxPoint x="796" y="578" as="sourcePoint"/>
          </mxGeometry>
        </mxCell>
        <mxCell id="H5Gk33Srun6ujfu2EQyN-97" value="r" style="text;html=1;align=center;verticalAlign=middle;resizable=0;points=[];;autosize=1;" parent="1" vertex="1">
          <mxGeometry x="268" y="391" width="20" height="20" as="geometry"/>
        </mxCell>
        <mxCell id="H5Gk33Srun6ujfu2EQyN-98" value="r" style="text;html=1;align=center;verticalAlign=middle;resizable=0;points=[];;autosize=1;" parent="1" vertex="1">
          <mxGeometry x="411" y="398" width="20" height="20" as="geometry"/>
        </mxCell>
        <mxCell id="H5Gk33Srun6ujfu2EQyN-100" value="r" style="text;html=1;align=center;verticalAlign=middle;resizable=0;points=[];;autosize=1;" parent="1" vertex="1">
          <mxGeometry x="736" y="412" width="20" height="20" as="geometry"/>
        </mxCell>
        <mxCell id="H5Gk33Srun6ujfu2EQyN-101" value="r" style="text;html=1;align=center;verticalAlign=middle;resizable=0;points=[];;autosize=1;" parent="1" vertex="1">
          <mxGeometry x="805" y="350" width="20" height="20" as="geometry"/>
        </mxCell>
        <mxCell id="H5Gk33Srun6ujfu2EQyN-102" value="r" style="text;html=1;align=center;verticalAlign=middle;resizable=0;points=[];;autosize=1;" parent="1" vertex="1">
          <mxGeometry x="549" y="620" width="20" height="20" as="geometry"/>
        </mxCell>
        <mxCell id="H5Gk33Srun6ujfu2EQyN-103" value="g" style="text;html=1;align=center;verticalAlign=middle;resizable=0;points=[];;autosize=1;" parent="1" vertex="1">
          <mxGeometry x="590" y="580" width="20" height="20" as="geometry"/>
        </mxCell>
        <mxCell id="H5Gk33Srun6ujfu2EQyN-104" value="g" style="text;html=1;align=center;verticalAlign=middle;resizable=0;points=[];;autosize=1;" parent="1" vertex="1">
          <mxGeometry x="746" y="536" width="20" height="20" as="geometry"/>
        </mxCell>
        <mxCell id="H5Gk33Srun6ujfu2EQyN-106" value="g" style="text;html=1;align=center;verticalAlign=middle;resizable=0;points=[];;autosize=1;" parent="1" vertex="1">
          <mxGeometry x="335" y="475" width="20" height="20" as="geometry"/>
        </mxCell>
        <mxCell id="H5Gk33Srun6ujfu2EQyN-113" style="edgeStyle=orthogonalEdgeStyle;curved=1;orthogonalLoop=1;jettySize=auto;html=1;exitX=1;exitY=0.5;exitDx=0;exitDy=0;entryX=0;entryY=0.5;entryDx=0;entryDy=0;" parent="1" source="H5Gk33Srun6ujfu2EQyN-110" target="H5Gk33Srun6ujfu2EQyN-80" edge="1">
          <mxGeometry relative="1" as="geometry"/>
        </mxCell>
        <mxCell id="H5Gk33Srun6ujfu2EQyN-110" value="start" style="ellipse;whiteSpace=wrap;html=1;aspect=fixed;" parent="1" vertex="1">
          <mxGeometry x="110" y="460" width="80" height="80" as="geometry"/>
        </mxCell>
        <mxCell id="H5Gk33Srun6ujfu2EQyN-112" value="" style="endArrow=classic;html=1;entryX=0;entryY=0.5;entryDx=0;entryDy=0;" parent="1" target="H5Gk33Srun6ujfu2EQyN-1" edge="1">
          <mxGeometry width="50" height="50" relative="1" as="geometry">
            <mxPoint x="40" y="170" as="sourcePoint"/>
            <mxPoint x="90" y="109" as="targetPoint"/>
          </mxGeometry>
        </mxCell>
        <mxCell id="H5Gk33Srun6ujfu2EQyN-114" value="" style="endArrow=classic;html=1;entryX=0;entryY=0.5;entryDx=0;entryDy=0;" parent="1" target="H5Gk33Srun6ujfu2EQyN-110" edge="1">
          <mxGeometry width="50" height="50" relative="1" as="geometry">
            <mxPoint x="50" y="500" as="sourcePoint"/>
            <mxPoint x="80" y="660" as="targetPoint"/>
          </mxGeometry>
        </mxCell>
        <mxCell id="H5Gk33Srun6ujfu2EQyN-117" value="&lt;b style=&quot;color: rgb(34 , 34 , 34) ; font-family: &amp;#34;arial&amp;#34; , sans-serif ; font-size: 16px ; text-align: left ; white-space: normal ; background-color: rgb(255 , 255 , 255)&quot;&gt;ε&lt;/b&gt;" style="text;html=1;align=center;verticalAlign=middle;resizable=0;points=[];;autosize=1;" parent="1" vertex="1">
          <mxGeometry x="200" y="475" width="20" height="20" as="geometry"/>
        </mxCell>
        <mxCell id="H5Gk33Srun6ujfu2EQyN-123" value="&lt;b style=&quot;color: rgb(34 , 34 , 34) ; font-family: &amp;#34;arial&amp;#34; , sans-serif ; font-size: 16px ; text-align: left ; white-space: normal ; background-color: rgb(255 , 255 , 255)&quot;&gt;ε&lt;/b&gt;" style="text;html=1;align=center;verticalAlign=middle;resizable=0;points=[];;autosize=1;" parent="1" vertex="1">
          <mxGeometry x="920" y="408" width="20" height="20" as="geometry"/>
        </mxCell>
        <mxCell id="H5Gk33Srun6ujfu2EQyN-124" value="&lt;b style=&quot;color: rgb(34 , 34 , 34) ; font-family: &amp;#34;arial&amp;#34; , sans-serif ; font-size: 16px ; text-align: left ; white-space: normal ; background-color: rgb(255 , 255 , 255)&quot;&gt;ε&lt;/b&gt;" style="text;html=1;align=center;verticalAlign=middle;resizable=0;points=[];;autosize=1;" parent="1" vertex="1">
          <mxGeometry x="910" y="560" width="20" height="20" as="geometry"/>
        </mxCell>
        <mxCell id="H5Gk33Srun6ujfu2EQyN-125" value="2" style="text;html=1;align=center;verticalAlign=middle;resizable=0;points=[];;autosize=1;" parent="1" vertex="1">
          <mxGeometry x="14" y="330" width="20" height="20" as="geometry"/>
        </mxCell>
        <mxCell id="hTNmZNLpJQOjZrtLU-wa-2" value="Add start and end states" style="text;html=1;align=center;verticalAlign=middle;resizable=0;points=[];;autosize=1;" vertex="1" parent="1">
          <mxGeometry x="35" y="330" width="150" height="20" as="geometry"/>
        </mxCell>
        <mxCell id="hTNmZNLpJQOjZrtLU-wa-26" value="r" style="text;html=1;align=center;verticalAlign=middle;resizable=0;points=[];;autosize=1;" vertex="1" parent="1">
          <mxGeometry x="551" y="950" width="20" height="20" as="geometry"/>
        </mxCell>
        <mxCell id="hTNmZNLpJQOjZrtLU-wa-48" style="edgeStyle=orthogonalEdgeStyle;rounded=0;orthogonalLoop=1;jettySize=auto;html=1;exitX=1;exitY=0.5;exitDx=0;exitDy=0;entryX=0;entryY=0.5;entryDx=0;entryDy=0;" edge="1" parent="1" source="hTNmZNLpJQOjZrtLU-wa-44" target="H5Gk33Srun6ujfu2EQyN-87">
          <mxGeometry relative="1" as="geometry"/>
        </mxCell>
        <mxCell id="hTNmZNLpJQOjZrtLU-wa-44" value="q1" style="ellipse;whiteSpace=wrap;html=1;aspect=fixed;" vertex="1" parent="1">
          <mxGeometry x="521" y="460" width="80" height="80" as="geometry"/>
        </mxCell>
        <mxCell id="hTNmZNLpJQOjZrtLU-wa-45" style="edgeStyle=orthogonalEdgeStyle;curved=1;orthogonalLoop=1;jettySize=auto;html=1;exitX=0;exitY=0;exitDx=0;exitDy=0;entryX=0.5;entryY=0;entryDx=0;entryDy=0;" edge="1" parent="1" source="hTNmZNLpJQOjZrtLU-wa-44" target="hTNmZNLpJQOjZrtLU-wa-44">
          <mxGeometry relative="1" as="geometry">
            <Array as="points">
              <mxPoint x="533" y="420"/>
              <mxPoint x="561" y="420"/>
            </Array>
          </mxGeometry>
        </mxCell>
        <mxCell id="hTNmZNLpJQOjZrtLU-wa-46" value="r" style="text;html=1;align=center;verticalAlign=middle;resizable=0;points=[];;autosize=1;" vertex="1" parent="1">
          <mxGeometry x="555" y="402" width="20" height="20" as="geometry"/>
        </mxCell>
        <mxCell id="hTNmZNLpJQOjZrtLU-wa-49" value="g" style="text;html=1;align=center;verticalAlign=middle;resizable=0;points=[];;autosize=1;" vertex="1" parent="1">
          <mxGeometry x="478" y="470" width="20" height="20" as="geometry"/>
        </mxCell>
        <mxCell id="hTNmZNLpJQOjZrtLU-wa-50" value="g" style="text;html=1;align=center;verticalAlign=middle;resizable=0;points=[];;autosize=1;" vertex="1" parent="1">
          <mxGeometry x="618" y="470" width="20" height="20" as="geometry"/>
        </mxCell>
        <mxCell id="hTNmZNLpJQOjZrtLU-wa-52" value="end" style="ellipse;shape=doubleEllipse;whiteSpace=wrap;html=1;" vertex="1" parent="1">
          <mxGeometry x="932" y="460" width="80" height="80" as="geometry"/>
        </mxCell>
        <mxCell id="hTNmZNLpJQOjZrtLU-wa-61" style="edgeStyle=orthogonalEdgeStyle;curved=1;rounded=0;orthogonalLoop=1;jettySize=auto;html=1;exitX=0.5;exitY=1;exitDx=0;exitDy=0;entryX=0.5;entryY=0;entryDx=0;entryDy=0;" edge="1" parent="1" source="hTNmZNLpJQOjZrtLU-wa-57" target="hTNmZNLpJQOjZrtLU-wa-56">
          <mxGeometry relative="1" as="geometry"/>
        </mxCell>
        <mxCell id="hTNmZNLpJQOjZrtLU-wa-62" style="edgeStyle=orthogonalEdgeStyle;curved=1;rounded=0;orthogonalLoop=1;jettySize=auto;html=1;exitX=1;exitY=0.5;exitDx=0;exitDy=0;entryX=0.5;entryY=0;entryDx=0;entryDy=0;" edge="1" parent="1" source="hTNmZNLpJQOjZrtLU-wa-57" target="hTNmZNLpJQOjZrtLU-wa-52">
          <mxGeometry relative="1" as="geometry"/>
        </mxCell>
        <mxCell id="hTNmZNLpJQOjZrtLU-wa-57" value="a0" style="ellipse;whiteSpace=wrap;html=1;aspect=fixed;" vertex="1" parent="1">
          <mxGeometry x="793" y="402" width="80" height="80" as="geometry"/>
        </mxCell>
        <mxCell id="hTNmZNLpJQOjZrtLU-wa-63" style="edgeStyle=orthogonalEdgeStyle;curved=1;rounded=0;orthogonalLoop=1;jettySize=auto;html=1;exitX=1;exitY=0.5;exitDx=0;exitDy=0;entryX=0.5;entryY=1;entryDx=0;entryDy=0;" edge="1" parent="1" source="hTNmZNLpJQOjZrtLU-wa-56" target="hTNmZNLpJQOjZrtLU-wa-52">
          <mxGeometry relative="1" as="geometry"/>
        </mxCell>
        <mxCell id="hTNmZNLpJQOjZrtLU-wa-65" style="edgeStyle=orthogonalEdgeStyle;curved=1;rounded=0;orthogonalLoop=1;jettySize=auto;html=1;exitX=0.5;exitY=1;exitDx=0;exitDy=0;entryX=0.5;entryY=1;entryDx=0;entryDy=0;" edge="1" parent="1" source="hTNmZNLpJQOjZrtLU-wa-56" target="H5Gk33Srun6ujfu2EQyN-80">
          <mxGeometry relative="1" as="geometry"/>
        </mxCell>
        <mxCell id="hTNmZNLpJQOjZrtLU-wa-56" value="a1" style="ellipse;whiteSpace=wrap;html=1;aspect=fixed;" vertex="1" parent="1">
          <mxGeometry x="793" y="520" width="80" height="80" as="geometry"/>
        </mxCell>
        <mxCell id="hTNmZNLpJQOjZrtLU-wa-64" style="edgeStyle=orthogonalEdgeStyle;curved=1;rounded=0;orthogonalLoop=1;jettySize=auto;html=1;exitX=0;exitY=0;exitDx=0;exitDy=0;entryX=0.5;entryY=0;entryDx=0;entryDy=0;" edge="1" parent="1" source="hTNmZNLpJQOjZrtLU-wa-57" target="hTNmZNLpJQOjZrtLU-wa-57">
          <mxGeometry relative="1" as="geometry">
            <Array as="points">
              <mxPoint x="804" y="380"/>
              <mxPoint x="833" y="380"/>
            </Array>
          </mxGeometry>
        </mxCell>
        <mxCell id="hTNmZNLpJQOjZrtLU-wa-68" style="edgeStyle=orthogonalEdgeStyle;orthogonalLoop=1;jettySize=auto;html=1;exitX=1;exitY=0.5;exitDx=0;exitDy=0;entryX=0;entryY=0.5;entryDx=0;entryDy=0;rounded=1;" edge="1" parent="1" source="hTNmZNLpJQOjZrtLU-wa-69" target="hTNmZNLpJQOjZrtLU-wa-71">
          <mxGeometry relative="1" as="geometry"/>
        </mxCell>
        <mxCell id="hTNmZNLpJQOjZrtLU-wa-69" value="s" style="ellipse;whiteSpace=wrap;html=1;aspect=fixed;" vertex="1" parent="1">
          <mxGeometry x="252" y="790" width="80" height="80" as="geometry"/>
        </mxCell>
        <mxCell id="hTNmZNLpJQOjZrtLU-wa-107" style="edgeStyle=orthogonalEdgeStyle;curved=1;rounded=0;orthogonalLoop=1;jettySize=auto;html=1;exitX=1;exitY=0.5;exitDx=0;exitDy=0;entryX=0;entryY=0.5;entryDx=0;entryDy=0;" edge="1" parent="1" source="hTNmZNLpJQOjZrtLU-wa-71" target="hTNmZNLpJQOjZrtLU-wa-74">
          <mxGeometry relative="1" as="geometry"/>
        </mxCell>
        <mxCell id="hTNmZNLpJQOjZrtLU-wa-71" value="q0" style="ellipse;whiteSpace=wrap;html=1;aspect=fixed;" vertex="1" parent="1">
          <mxGeometry x="392" y="790" width="80" height="80" as="geometry"/>
        </mxCell>
        <mxCell id="hTNmZNLpJQOjZrtLU-wa-72" style="edgeStyle=orthogonalEdgeStyle;rounded=0;orthogonalLoop=1;jettySize=auto;html=1;exitX=0.5;exitY=0;exitDx=0;exitDy=0;curved=1;" edge="1" parent="1" source="hTNmZNLpJQOjZrtLU-wa-74" target="hTNmZNLpJQOjZrtLU-wa-102">
          <mxGeometry relative="1" as="geometry"/>
        </mxCell>
        <mxCell id="hTNmZNLpJQOjZrtLU-wa-73" style="edgeStyle=orthogonalEdgeStyle;curved=1;rounded=0;orthogonalLoop=1;jettySize=auto;html=1;exitX=0.5;exitY=1;exitDx=0;exitDy=0;entryX=0;entryY=0.5;entryDx=0;entryDy=0;" edge="1" parent="1" source="hTNmZNLpJQOjZrtLU-wa-74" target="hTNmZNLpJQOjZrtLU-wa-105">
          <mxGeometry relative="1" as="geometry"/>
        </mxCell>
        <mxCell id="hTNmZNLpJQOjZrtLU-wa-74" value="q2" style="ellipse;whiteSpace=wrap;html=1;aspect=fixed;" vertex="1" parent="1">
          <mxGeometry x="672" y="790" width="80" height="80" as="geometry"/>
        </mxCell>
        <mxCell id="hTNmZNLpJQOjZrtLU-wa-75" style="edgeStyle=orthogonalEdgeStyle;curved=1;orthogonalLoop=1;jettySize=auto;html=1;exitX=0;exitY=0;exitDx=0;exitDy=0;entryX=0.5;entryY=0;entryDx=0;entryDy=0;" edge="1" parent="1" source="hTNmZNLpJQOjZrtLU-wa-69" target="hTNmZNLpJQOjZrtLU-wa-69">
          <mxGeometry relative="1" as="geometry">
            <Array as="points">
              <mxPoint x="264" y="750"/>
              <mxPoint x="292" y="750"/>
            </Array>
          </mxGeometry>
        </mxCell>
        <mxCell id="hTNmZNLpJQOjZrtLU-wa-76" style="edgeStyle=orthogonalEdgeStyle;curved=1;orthogonalLoop=1;jettySize=auto;html=1;exitX=0;exitY=0;exitDx=0;exitDy=0;entryX=0.5;entryY=0;entryDx=0;entryDy=0;" edge="1" parent="1" source="hTNmZNLpJQOjZrtLU-wa-71" target="hTNmZNLpJQOjZrtLU-wa-71">
          <mxGeometry relative="1" as="geometry">
            <Array as="points">
              <mxPoint x="404" y="750"/>
              <mxPoint x="432" y="750"/>
            </Array>
          </mxGeometry>
        </mxCell>
        <mxCell id="hTNmZNLpJQOjZrtLU-wa-77" style="edgeStyle=orthogonalEdgeStyle;curved=1;orthogonalLoop=1;jettySize=auto;html=1;exitX=0;exitY=1;exitDx=0;exitDy=0;entryX=0.5;entryY=1;entryDx=0;entryDy=0;" edge="1" parent="1" target="hTNmZNLpJQOjZrtLU-wa-71">
          <mxGeometry relative="1" as="geometry">
            <mxPoint x="813" y="908" as="sourcePoint"/>
          </mxGeometry>
        </mxCell>
        <mxCell id="hTNmZNLpJQOjZrtLU-wa-78" value="r" style="text;html=1;align=center;verticalAlign=middle;resizable=0;points=[];;autosize=1;" vertex="1" parent="1">
          <mxGeometry x="285" y="721" width="20" height="20" as="geometry"/>
        </mxCell>
        <mxCell id="hTNmZNLpJQOjZrtLU-wa-79" value="r" style="text;html=1;align=center;verticalAlign=middle;resizable=0;points=[];;autosize=1;" vertex="1" parent="1">
          <mxGeometry x="428" y="728" width="20" height="20" as="geometry"/>
        </mxCell>
        <mxCell id="hTNmZNLpJQOjZrtLU-wa-80" value="r" style="text;html=1;align=center;verticalAlign=middle;resizable=0;points=[];;autosize=1;" vertex="1" parent="1">
          <mxGeometry x="753" y="742" width="20" height="20" as="geometry"/>
        </mxCell>
        <mxCell id="hTNmZNLpJQOjZrtLU-wa-81" value="r" style="text;html=1;align=center;verticalAlign=middle;resizable=0;points=[];;autosize=1;" vertex="1" parent="1">
          <mxGeometry x="822" y="680" width="20" height="20" as="geometry"/>
        </mxCell>
        <mxCell id="hTNmZNLpJQOjZrtLU-wa-82" value="g" style="text;html=1;align=center;verticalAlign=middle;resizable=0;points=[];;autosize=1;" vertex="1" parent="1">
          <mxGeometry x="607" y="910" width="20" height="20" as="geometry"/>
        </mxCell>
        <mxCell id="hTNmZNLpJQOjZrtLU-wa-83" value="g" style="text;html=1;align=center;verticalAlign=middle;resizable=0;points=[];;autosize=1;" vertex="1" parent="1">
          <mxGeometry x="763" y="866" width="20" height="20" as="geometry"/>
        </mxCell>
        <mxCell id="hTNmZNLpJQOjZrtLU-wa-84" value="g" style="text;html=1;align=center;verticalAlign=middle;resizable=0;points=[];;autosize=1;" vertex="1" parent="1">
          <mxGeometry x="352" y="805" width="20" height="20" as="geometry"/>
        </mxCell>
        <mxCell id="hTNmZNLpJQOjZrtLU-wa-85" style="edgeStyle=orthogonalEdgeStyle;curved=1;orthogonalLoop=1;jettySize=auto;html=1;exitX=1;exitY=0.5;exitDx=0;exitDy=0;entryX=0;entryY=0.5;entryDx=0;entryDy=0;" edge="1" parent="1" source="hTNmZNLpJQOjZrtLU-wa-86" target="hTNmZNLpJQOjZrtLU-wa-69">
          <mxGeometry relative="1" as="geometry"/>
        </mxCell>
        <mxCell id="hTNmZNLpJQOjZrtLU-wa-86" value="start" style="ellipse;whiteSpace=wrap;html=1;aspect=fixed;" vertex="1" parent="1">
          <mxGeometry x="127" y="790" width="80" height="80" as="geometry"/>
        </mxCell>
        <mxCell id="hTNmZNLpJQOjZrtLU-wa-87" value="" style="endArrow=classic;html=1;entryX=0;entryY=0.5;entryDx=0;entryDy=0;" edge="1" parent="1" target="hTNmZNLpJQOjZrtLU-wa-86">
          <mxGeometry width="50" height="50" relative="1" as="geometry">
            <mxPoint x="67" y="830" as="sourcePoint"/>
            <mxPoint x="97" y="990" as="targetPoint"/>
          </mxGeometry>
        </mxCell>
        <mxCell id="hTNmZNLpJQOjZrtLU-wa-88" value="&lt;b style=&quot;color: rgb(34 , 34 , 34) ; font-family: &amp;#34;arial&amp;#34; , sans-serif ; font-size: 16px ; text-align: left ; white-space: normal ; background-color: rgb(255 , 255 , 255)&quot;&gt;ε&lt;/b&gt;" style="text;html=1;align=center;verticalAlign=middle;resizable=0;points=[];;autosize=1;" vertex="1" parent="1">
          <mxGeometry x="217" y="805" width="20" height="20" as="geometry"/>
        </mxCell>
        <mxCell id="hTNmZNLpJQOjZrtLU-wa-89" value="&lt;b style=&quot;color: rgb(34 , 34 , 34) ; font-family: &amp;#34;arial&amp;#34; , sans-serif ; font-size: 16px ; text-align: left ; white-space: normal ; background-color: rgb(255 , 255 , 255)&quot;&gt;ε&lt;/b&gt;" style="text;html=1;align=center;verticalAlign=middle;resizable=0;points=[];;autosize=1;" vertex="1" parent="1">
          <mxGeometry x="937" y="738" width="20" height="20" as="geometry"/>
        </mxCell>
        <mxCell id="hTNmZNLpJQOjZrtLU-wa-90" value="&lt;b style=&quot;color: rgb(34 , 34 , 34) ; font-family: &amp;#34;arial&amp;#34; , sans-serif ; font-size: 16px ; text-align: left ; white-space: normal ; background-color: rgb(255 , 255 , 255)&quot;&gt;ε&lt;/b&gt;" style="text;html=1;align=center;verticalAlign=middle;resizable=0;points=[];;autosize=1;" vertex="1" parent="1">
          <mxGeometry x="927" y="890" width="20" height="20" as="geometry"/>
        </mxCell>
        <mxCell id="hTNmZNLpJQOjZrtLU-wa-91" value="3" style="text;html=1;align=center;verticalAlign=middle;resizable=0;points=[];;autosize=1;" vertex="1" parent="1">
          <mxGeometry x="31" y="660" width="20" height="20" as="geometry"/>
        </mxCell>
        <mxCell id="hTNmZNLpJQOjZrtLU-wa-92" value="Remove q1" style="text;html=1;align=center;verticalAlign=middle;resizable=0;points=[];;autosize=1;" vertex="1" parent="1">
          <mxGeometry x="87" y="660" width="80" height="20" as="geometry"/>
        </mxCell>
        <mxCell id="hTNmZNLpJQOjZrtLU-wa-99" value="end" style="ellipse;shape=doubleEllipse;whiteSpace=wrap;html=1;" vertex="1" parent="1">
          <mxGeometry x="949" y="790" width="80" height="80" as="geometry"/>
        </mxCell>
        <mxCell id="hTNmZNLpJQOjZrtLU-wa-100" style="edgeStyle=orthogonalEdgeStyle;curved=1;rounded=0;orthogonalLoop=1;jettySize=auto;html=1;exitX=0.5;exitY=1;exitDx=0;exitDy=0;entryX=0.5;entryY=0;entryDx=0;entryDy=0;" edge="1" parent="1" source="hTNmZNLpJQOjZrtLU-wa-102" target="hTNmZNLpJQOjZrtLU-wa-105">
          <mxGeometry relative="1" as="geometry"/>
        </mxCell>
        <mxCell id="hTNmZNLpJQOjZrtLU-wa-101" style="edgeStyle=orthogonalEdgeStyle;curved=1;rounded=0;orthogonalLoop=1;jettySize=auto;html=1;exitX=1;exitY=0.5;exitDx=0;exitDy=0;entryX=0.5;entryY=0;entryDx=0;entryDy=0;" edge="1" parent="1" source="hTNmZNLpJQOjZrtLU-wa-102" target="hTNmZNLpJQOjZrtLU-wa-99">
          <mxGeometry relative="1" as="geometry"/>
        </mxCell>
        <mxCell id="hTNmZNLpJQOjZrtLU-wa-102" value="a0" style="ellipse;whiteSpace=wrap;html=1;aspect=fixed;" vertex="1" parent="1">
          <mxGeometry x="810" y="732" width="80" height="80" as="geometry"/>
        </mxCell>
        <mxCell id="hTNmZNLpJQOjZrtLU-wa-103" style="edgeStyle=orthogonalEdgeStyle;curved=1;rounded=0;orthogonalLoop=1;jettySize=auto;html=1;exitX=1;exitY=0.5;exitDx=0;exitDy=0;entryX=0.5;entryY=1;entryDx=0;entryDy=0;" edge="1" parent="1" source="hTNmZNLpJQOjZrtLU-wa-105" target="hTNmZNLpJQOjZrtLU-wa-99">
          <mxGeometry relative="1" as="geometry"/>
        </mxCell>
        <mxCell id="hTNmZNLpJQOjZrtLU-wa-104" style="edgeStyle=orthogonalEdgeStyle;curved=1;rounded=0;orthogonalLoop=1;jettySize=auto;html=1;exitX=0.5;exitY=1;exitDx=0;exitDy=0;entryX=0.5;entryY=1;entryDx=0;entryDy=0;" edge="1" parent="1" source="hTNmZNLpJQOjZrtLU-wa-105" target="hTNmZNLpJQOjZrtLU-wa-69">
          <mxGeometry relative="1" as="geometry"/>
        </mxCell>
        <mxCell id="hTNmZNLpJQOjZrtLU-wa-105" value="a1" style="ellipse;whiteSpace=wrap;html=1;aspect=fixed;" vertex="1" parent="1">
          <mxGeometry x="810" y="850" width="80" height="80" as="geometry"/>
        </mxCell>
        <mxCell id="hTNmZNLpJQOjZrtLU-wa-106" style="edgeStyle=orthogonalEdgeStyle;curved=1;rounded=0;orthogonalLoop=1;jettySize=auto;html=1;exitX=0;exitY=0;exitDx=0;exitDy=0;entryX=0.5;entryY=0;entryDx=0;entryDy=0;" edge="1" parent="1" source="hTNmZNLpJQOjZrtLU-wa-102" target="hTNmZNLpJQOjZrtLU-wa-102">
          <mxGeometry relative="1" as="geometry">
            <Array as="points">
              <mxPoint x="821" y="710"/>
              <mxPoint x="850" y="710"/>
            </Array>
          </mxGeometry>
        </mxCell>
        <mxCell id="hTNmZNLpJQOjZrtLU-wa-108" value="g r* g" style="text;html=1;align=center;verticalAlign=middle;resizable=0;points=[];;autosize=1;" vertex="1" parent="1">
          <mxGeometry x="528" y="813" width="40" height="20" as="geometry"/>
        </mxCell>
        <mxCell id="hTNmZNLpJQOjZrtLU-wa-109" value="r" style="text;html=1;align=center;verticalAlign=middle;resizable=0;points=[];;autosize=1;" vertex="1" parent="1">
          <mxGeometry x="564" y="1300" width="20" height="20" as="geometry"/>
        </mxCell>
        <mxCell id="hTNmZNLpJQOjZrtLU-wa-110" style="edgeStyle=orthogonalEdgeStyle;orthogonalLoop=1;jettySize=auto;html=1;exitX=1;exitY=0.5;exitDx=0;exitDy=0;entryX=0;entryY=0.5;entryDx=0;entryDy=0;rounded=1;" edge="1" parent="1" source="hTNmZNLpJQOjZrtLU-wa-111" target="hTNmZNLpJQOjZrtLU-wa-113">
          <mxGeometry relative="1" as="geometry"/>
        </mxCell>
        <mxCell id="hTNmZNLpJQOjZrtLU-wa-111" value="s" style="ellipse;whiteSpace=wrap;html=1;aspect=fixed;" vertex="1" parent="1">
          <mxGeometry x="265" y="1140" width="80" height="80" as="geometry"/>
        </mxCell>
        <mxCell id="hTNmZNLpJQOjZrtLU-wa-146" style="edgeStyle=orthogonalEdgeStyle;curved=1;rounded=0;orthogonalLoop=1;jettySize=auto;html=1;exitX=1;exitY=0;exitDx=0;exitDy=0;entryX=0;entryY=0.5;entryDx=0;entryDy=0;" edge="1" parent="1" source="hTNmZNLpJQOjZrtLU-wa-113" target="hTNmZNLpJQOjZrtLU-wa-138">
          <mxGeometry relative="1" as="geometry">
            <Array as="points">
              <mxPoint x="473" y="1122"/>
            </Array>
          </mxGeometry>
        </mxCell>
        <mxCell id="hTNmZNLpJQOjZrtLU-wa-148" style="edgeStyle=orthogonalEdgeStyle;curved=1;rounded=0;orthogonalLoop=1;jettySize=auto;html=1;exitX=1;exitY=1;exitDx=0;exitDy=0;" edge="1" parent="1" source="hTNmZNLpJQOjZrtLU-wa-113" target="hTNmZNLpJQOjZrtLU-wa-141">
          <mxGeometry relative="1" as="geometry">
            <Array as="points">
              <mxPoint x="473" y="1240"/>
            </Array>
          </mxGeometry>
        </mxCell>
        <mxCell id="hTNmZNLpJQOjZrtLU-wa-113" value="q0" style="ellipse;whiteSpace=wrap;html=1;aspect=fixed;" vertex="1" parent="1">
          <mxGeometry x="405" y="1140" width="80" height="80" as="geometry"/>
        </mxCell>
        <mxCell id="hTNmZNLpJQOjZrtLU-wa-117" style="edgeStyle=orthogonalEdgeStyle;curved=1;orthogonalLoop=1;jettySize=auto;html=1;exitX=0;exitY=0;exitDx=0;exitDy=0;entryX=0.5;entryY=0;entryDx=0;entryDy=0;" edge="1" parent="1" source="hTNmZNLpJQOjZrtLU-wa-111" target="hTNmZNLpJQOjZrtLU-wa-111">
          <mxGeometry relative="1" as="geometry">
            <Array as="points">
              <mxPoint x="277" y="1100"/>
              <mxPoint x="305" y="1100"/>
            </Array>
          </mxGeometry>
        </mxCell>
        <mxCell id="hTNmZNLpJQOjZrtLU-wa-118" style="edgeStyle=orthogonalEdgeStyle;curved=1;orthogonalLoop=1;jettySize=auto;html=1;exitX=0;exitY=0;exitDx=0;exitDy=0;entryX=0.5;entryY=0;entryDx=0;entryDy=0;" edge="1" parent="1" source="hTNmZNLpJQOjZrtLU-wa-113" target="hTNmZNLpJQOjZrtLU-wa-113">
          <mxGeometry relative="1" as="geometry">
            <Array as="points">
              <mxPoint x="417" y="1100"/>
              <mxPoint x="445" y="1100"/>
            </Array>
          </mxGeometry>
        </mxCell>
        <mxCell id="hTNmZNLpJQOjZrtLU-wa-119" style="edgeStyle=orthogonalEdgeStyle;curved=1;orthogonalLoop=1;jettySize=auto;html=1;exitX=0;exitY=1;exitDx=0;exitDy=0;entryX=0.5;entryY=1;entryDx=0;entryDy=0;" edge="1" parent="1" target="hTNmZNLpJQOjZrtLU-wa-113">
          <mxGeometry relative="1" as="geometry">
            <mxPoint x="826.0000000000002" y="1258" as="sourcePoint"/>
          </mxGeometry>
        </mxCell>
        <mxCell id="hTNmZNLpJQOjZrtLU-wa-120" value="r" style="text;html=1;align=center;verticalAlign=middle;resizable=0;points=[];;autosize=1;" vertex="1" parent="1">
          <mxGeometry x="298" y="1071" width="20" height="20" as="geometry"/>
        </mxCell>
        <mxCell id="hTNmZNLpJQOjZrtLU-wa-121" value="r" style="text;html=1;align=center;verticalAlign=middle;resizable=0;points=[];;autosize=1;" vertex="1" parent="1">
          <mxGeometry x="441" y="1078" width="20" height="20" as="geometry"/>
        </mxCell>
        <mxCell id="hTNmZNLpJQOjZrtLU-wa-123" value="r" style="text;html=1;align=center;verticalAlign=middle;resizable=0;points=[];;autosize=1;" vertex="1" parent="1">
          <mxGeometry x="835" y="1030" width="20" height="20" as="geometry"/>
        </mxCell>
        <mxCell id="hTNmZNLpJQOjZrtLU-wa-124" value="g" style="text;html=1;align=center;verticalAlign=middle;resizable=0;points=[];;autosize=1;" vertex="1" parent="1">
          <mxGeometry x="620" y="1260" width="20" height="20" as="geometry"/>
        </mxCell>
        <mxCell id="hTNmZNLpJQOjZrtLU-wa-126" value="g" style="text;html=1;align=center;verticalAlign=middle;resizable=0;points=[];;autosize=1;" vertex="1" parent="1">
          <mxGeometry x="365" y="1155" width="20" height="20" as="geometry"/>
        </mxCell>
        <mxCell id="hTNmZNLpJQOjZrtLU-wa-127" style="edgeStyle=orthogonalEdgeStyle;curved=1;orthogonalLoop=1;jettySize=auto;html=1;exitX=1;exitY=0.5;exitDx=0;exitDy=0;entryX=0;entryY=0.5;entryDx=0;entryDy=0;" edge="1" parent="1" source="hTNmZNLpJQOjZrtLU-wa-128" target="hTNmZNLpJQOjZrtLU-wa-111">
          <mxGeometry relative="1" as="geometry"/>
        </mxCell>
        <mxCell id="hTNmZNLpJQOjZrtLU-wa-128" value="start" style="ellipse;whiteSpace=wrap;html=1;aspect=fixed;" vertex="1" parent="1">
          <mxGeometry x="140" y="1140" width="80" height="80" as="geometry"/>
        </mxCell>
        <mxCell id="hTNmZNLpJQOjZrtLU-wa-129" value="" style="endArrow=classic;html=1;entryX=0;entryY=0.5;entryDx=0;entryDy=0;" edge="1" parent="1" target="hTNmZNLpJQOjZrtLU-wa-128">
          <mxGeometry width="50" height="50" relative="1" as="geometry">
            <mxPoint x="80" y="1180" as="sourcePoint"/>
            <mxPoint x="110" y="1340" as="targetPoint"/>
          </mxGeometry>
        </mxCell>
        <mxCell id="hTNmZNLpJQOjZrtLU-wa-130" value="&lt;b style=&quot;color: rgb(34 , 34 , 34) ; font-family: &amp;#34;arial&amp;#34; , sans-serif ; font-size: 16px ; text-align: left ; white-space: normal ; background-color: rgb(255 , 255 , 255)&quot;&gt;ε&lt;/b&gt;" style="text;html=1;align=center;verticalAlign=middle;resizable=0;points=[];;autosize=1;" vertex="1" parent="1">
          <mxGeometry x="230" y="1155" width="20" height="20" as="geometry"/>
        </mxCell>
        <mxCell id="hTNmZNLpJQOjZrtLU-wa-131" value="&lt;b style=&quot;color: rgb(34 , 34 , 34) ; font-family: &amp;#34;arial&amp;#34; , sans-serif ; font-size: 16px ; text-align: left ; white-space: normal ; background-color: rgb(255 , 255 , 255)&quot;&gt;ε&lt;/b&gt;" style="text;html=1;align=center;verticalAlign=middle;resizable=0;points=[];;autosize=1;" vertex="1" parent="1">
          <mxGeometry x="950" y="1088" width="20" height="20" as="geometry"/>
        </mxCell>
        <mxCell id="hTNmZNLpJQOjZrtLU-wa-132" value="&lt;b style=&quot;color: rgb(34 , 34 , 34) ; font-family: &amp;#34;arial&amp;#34; , sans-serif ; font-size: 16px ; text-align: left ; white-space: normal ; background-color: rgb(255 , 255 , 255)&quot;&gt;ε&lt;/b&gt;" style="text;html=1;align=center;verticalAlign=middle;resizable=0;points=[];;autosize=1;" vertex="1" parent="1">
          <mxGeometry x="940" y="1240" width="20" height="20" as="geometry"/>
        </mxCell>
        <mxCell id="hTNmZNLpJQOjZrtLU-wa-133" value="4" style="text;html=1;align=center;verticalAlign=middle;resizable=0;points=[];;autosize=1;" vertex="1" parent="1">
          <mxGeometry x="43" y="1010" width="20" height="20" as="geometry"/>
        </mxCell>
        <mxCell id="hTNmZNLpJQOjZrtLU-wa-134" value="Remove q2" style="text;html=1;align=center;verticalAlign=middle;resizable=0;points=[];;autosize=1;" vertex="1" parent="1">
          <mxGeometry x="100" y="1010" width="80" height="20" as="geometry"/>
        </mxCell>
        <mxCell id="hTNmZNLpJQOjZrtLU-wa-135" value="end" style="ellipse;shape=doubleEllipse;whiteSpace=wrap;html=1;" vertex="1" parent="1">
          <mxGeometry x="962" y="1140" width="80" height="80" as="geometry"/>
        </mxCell>
        <mxCell id="hTNmZNLpJQOjZrtLU-wa-136" style="edgeStyle=orthogonalEdgeStyle;curved=1;rounded=0;orthogonalLoop=1;jettySize=auto;html=1;exitX=0.5;exitY=1;exitDx=0;exitDy=0;entryX=0.5;entryY=0;entryDx=0;entryDy=0;" edge="1" parent="1" source="hTNmZNLpJQOjZrtLU-wa-138" target="hTNmZNLpJQOjZrtLU-wa-141">
          <mxGeometry relative="1" as="geometry"/>
        </mxCell>
        <mxCell id="hTNmZNLpJQOjZrtLU-wa-137" style="edgeStyle=orthogonalEdgeStyle;curved=1;rounded=0;orthogonalLoop=1;jettySize=auto;html=1;exitX=1;exitY=0.5;exitDx=0;exitDy=0;entryX=0.5;entryY=0;entryDx=0;entryDy=0;" edge="1" parent="1" source="hTNmZNLpJQOjZrtLU-wa-138" target="hTNmZNLpJQOjZrtLU-wa-135">
          <mxGeometry relative="1" as="geometry"/>
        </mxCell>
        <mxCell id="hTNmZNLpJQOjZrtLU-wa-138" value="a0" style="ellipse;whiteSpace=wrap;html=1;aspect=fixed;" vertex="1" parent="1">
          <mxGeometry x="823" y="1082" width="80" height="80" as="geometry"/>
        </mxCell>
        <mxCell id="hTNmZNLpJQOjZrtLU-wa-139" style="edgeStyle=orthogonalEdgeStyle;curved=1;rounded=0;orthogonalLoop=1;jettySize=auto;html=1;exitX=1;exitY=0.5;exitDx=0;exitDy=0;entryX=0.5;entryY=1;entryDx=0;entryDy=0;" edge="1" parent="1" source="hTNmZNLpJQOjZrtLU-wa-141" target="hTNmZNLpJQOjZrtLU-wa-135">
          <mxGeometry relative="1" as="geometry"/>
        </mxCell>
        <mxCell id="hTNmZNLpJQOjZrtLU-wa-140" style="edgeStyle=orthogonalEdgeStyle;curved=1;rounded=0;orthogonalLoop=1;jettySize=auto;html=1;exitX=0.5;exitY=1;exitDx=0;exitDy=0;entryX=0.5;entryY=1;entryDx=0;entryDy=0;" edge="1" parent="1" source="hTNmZNLpJQOjZrtLU-wa-141" target="hTNmZNLpJQOjZrtLU-wa-111">
          <mxGeometry relative="1" as="geometry"/>
        </mxCell>
        <mxCell id="hTNmZNLpJQOjZrtLU-wa-141" value="a1" style="ellipse;whiteSpace=wrap;html=1;aspect=fixed;" vertex="1" parent="1">
          <mxGeometry x="823" y="1200" width="80" height="80" as="geometry"/>
        </mxCell>
        <mxCell id="hTNmZNLpJQOjZrtLU-wa-142" style="edgeStyle=orthogonalEdgeStyle;curved=1;rounded=0;orthogonalLoop=1;jettySize=auto;html=1;exitX=0;exitY=0;exitDx=0;exitDy=0;entryX=0.5;entryY=0;entryDx=0;entryDy=0;" edge="1" parent="1" source="hTNmZNLpJQOjZrtLU-wa-138" target="hTNmZNLpJQOjZrtLU-wa-138">
          <mxGeometry relative="1" as="geometry">
            <Array as="points">
              <mxPoint x="834" y="1060"/>
              <mxPoint x="863" y="1060"/>
            </Array>
          </mxGeometry>
        </mxCell>
        <mxCell id="hTNmZNLpJQOjZrtLU-wa-143" value="g r* g r" style="text;html=1;align=center;verticalAlign=middle;resizable=0;points=[];;autosize=1;" vertex="1" parent="1">
          <mxGeometry x="593" y="1098" width="50" height="20" as="geometry"/>
        </mxCell>
        <mxCell id="hTNmZNLpJQOjZrtLU-wa-147" value="g r* g g" style="text;html=1;align=center;verticalAlign=middle;resizable=0;points=[];;autosize=1;" vertex="1" parent="1">
          <mxGeometry x="596" y="1210" width="50" height="20" as="geometry"/>
        </mxCell>
        <mxCell id="hTNmZNLpJQOjZrtLU-wa-149" value="r" style="text;html=1;align=center;verticalAlign=middle;resizable=0;points=[];;autosize=1;" vertex="1" parent="1">
          <mxGeometry x="619.5" y="1670" width="20" height="20" as="geometry"/>
        </mxCell>
        <mxCell id="hTNmZNLpJQOjZrtLU-wa-150" style="edgeStyle=orthogonalEdgeStyle;orthogonalLoop=1;jettySize=auto;html=1;exitX=1;exitY=0.5;exitDx=0;exitDy=0;entryX=0;entryY=0.5;entryDx=0;entryDy=0;rounded=1;" edge="1" parent="1" source="hTNmZNLpJQOjZrtLU-wa-151" target="hTNmZNLpJQOjZrtLU-wa-154">
          <mxGeometry relative="1" as="geometry"/>
        </mxCell>
        <mxCell id="hTNmZNLpJQOjZrtLU-wa-151" value="s" style="ellipse;whiteSpace=wrap;html=1;aspect=fixed;" vertex="1" parent="1">
          <mxGeometry x="320.5" y="1510" width="80" height="80" as="geometry"/>
        </mxCell>
        <mxCell id="hTNmZNLpJQOjZrtLU-wa-153" style="edgeStyle=orthogonalEdgeStyle;curved=1;rounded=0;orthogonalLoop=1;jettySize=auto;html=1;exitX=1;exitY=1;exitDx=0;exitDy=0;" edge="1" parent="1" source="hTNmZNLpJQOjZrtLU-wa-154" target="hTNmZNLpJQOjZrtLU-wa-177">
          <mxGeometry relative="1" as="geometry">
            <Array as="points">
              <mxPoint x="528.5" y="1610"/>
            </Array>
          </mxGeometry>
        </mxCell>
        <mxCell id="hTNmZNLpJQOjZrtLU-wa-181" style="edgeStyle=orthogonalEdgeStyle;curved=1;rounded=0;orthogonalLoop=1;jettySize=auto;html=1;exitX=1;exitY=0;exitDx=0;exitDy=0;entryX=0.5;entryY=0;entryDx=0;entryDy=0;" edge="1" parent="1" source="hTNmZNLpJQOjZrtLU-wa-154" target="hTNmZNLpJQOjZrtLU-wa-171">
          <mxGeometry relative="1" as="geometry">
            <Array as="points">
              <mxPoint x="529" y="1460"/>
              <mxPoint x="1057" y="1460"/>
            </Array>
          </mxGeometry>
        </mxCell>
        <mxCell id="hTNmZNLpJQOjZrtLU-wa-154" value="q0" style="ellipse;whiteSpace=wrap;html=1;aspect=fixed;" vertex="1" parent="1">
          <mxGeometry x="460.5" y="1510" width="80" height="80" as="geometry"/>
        </mxCell>
        <mxCell id="hTNmZNLpJQOjZrtLU-wa-155" style="edgeStyle=orthogonalEdgeStyle;curved=1;orthogonalLoop=1;jettySize=auto;html=1;exitX=0;exitY=0;exitDx=0;exitDy=0;entryX=0.5;entryY=0;entryDx=0;entryDy=0;" edge="1" parent="1" source="hTNmZNLpJQOjZrtLU-wa-151" target="hTNmZNLpJQOjZrtLU-wa-151">
          <mxGeometry relative="1" as="geometry">
            <Array as="points">
              <mxPoint x="332.5" y="1470"/>
              <mxPoint x="360.5" y="1470"/>
            </Array>
          </mxGeometry>
        </mxCell>
        <mxCell id="hTNmZNLpJQOjZrtLU-wa-156" style="edgeStyle=orthogonalEdgeStyle;curved=1;orthogonalLoop=1;jettySize=auto;html=1;exitX=0;exitY=0;exitDx=0;exitDy=0;entryX=0.5;entryY=0;entryDx=0;entryDy=0;" edge="1" parent="1" source="hTNmZNLpJQOjZrtLU-wa-154" target="hTNmZNLpJQOjZrtLU-wa-154">
          <mxGeometry relative="1" as="geometry">
            <Array as="points">
              <mxPoint x="472.5" y="1470"/>
              <mxPoint x="500.5" y="1470"/>
            </Array>
          </mxGeometry>
        </mxCell>
        <mxCell id="hTNmZNLpJQOjZrtLU-wa-157" style="edgeStyle=orthogonalEdgeStyle;curved=1;orthogonalLoop=1;jettySize=auto;html=1;exitX=0;exitY=1;exitDx=0;exitDy=0;entryX=0.5;entryY=1;entryDx=0;entryDy=0;" edge="1" parent="1" target="hTNmZNLpJQOjZrtLU-wa-154">
          <mxGeometry relative="1" as="geometry">
            <mxPoint x="881.5000000000002" y="1628" as="sourcePoint"/>
          </mxGeometry>
        </mxCell>
        <mxCell id="hTNmZNLpJQOjZrtLU-wa-158" value="r" style="text;html=1;align=center;verticalAlign=middle;resizable=0;points=[];;autosize=1;" vertex="1" parent="1">
          <mxGeometry x="353.5" y="1441" width="20" height="20" as="geometry"/>
        </mxCell>
        <mxCell id="hTNmZNLpJQOjZrtLU-wa-159" value="r" style="text;html=1;align=center;verticalAlign=middle;resizable=0;points=[];;autosize=1;" vertex="1" parent="1">
          <mxGeometry x="496.5" y="1448" width="20" height="20" as="geometry"/>
        </mxCell>
        <mxCell id="hTNmZNLpJQOjZrtLU-wa-161" value="g" style="text;html=1;align=center;verticalAlign=middle;resizable=0;points=[];;autosize=1;" vertex="1" parent="1">
          <mxGeometry x="675.5" y="1630" width="20" height="20" as="geometry"/>
        </mxCell>
        <mxCell id="hTNmZNLpJQOjZrtLU-wa-162" value="g" style="text;html=1;align=center;verticalAlign=middle;resizable=0;points=[];;autosize=1;" vertex="1" parent="1">
          <mxGeometry x="420.5" y="1525" width="20" height="20" as="geometry"/>
        </mxCell>
        <mxCell id="hTNmZNLpJQOjZrtLU-wa-163" style="edgeStyle=orthogonalEdgeStyle;curved=1;orthogonalLoop=1;jettySize=auto;html=1;exitX=1;exitY=0.5;exitDx=0;exitDy=0;entryX=0;entryY=0.5;entryDx=0;entryDy=0;" edge="1" parent="1" source="hTNmZNLpJQOjZrtLU-wa-164" target="hTNmZNLpJQOjZrtLU-wa-151">
          <mxGeometry relative="1" as="geometry"/>
        </mxCell>
        <mxCell id="hTNmZNLpJQOjZrtLU-wa-164" value="start" style="ellipse;whiteSpace=wrap;html=1;aspect=fixed;" vertex="1" parent="1">
          <mxGeometry x="195.5" y="1510" width="80" height="80" as="geometry"/>
        </mxCell>
        <mxCell id="hTNmZNLpJQOjZrtLU-wa-165" value="" style="endArrow=classic;html=1;entryX=0;entryY=0.5;entryDx=0;entryDy=0;" edge="1" parent="1" target="hTNmZNLpJQOjZrtLU-wa-164">
          <mxGeometry width="50" height="50" relative="1" as="geometry">
            <mxPoint x="135.5" y="1550" as="sourcePoint"/>
            <mxPoint x="165.5" y="1710" as="targetPoint"/>
          </mxGeometry>
        </mxCell>
        <mxCell id="hTNmZNLpJQOjZrtLU-wa-166" value="&lt;b style=&quot;color: rgb(34 , 34 , 34) ; font-family: &amp;#34;arial&amp;#34; , sans-serif ; font-size: 16px ; text-align: left ; white-space: normal ; background-color: rgb(255 , 255 , 255)&quot;&gt;ε&lt;/b&gt;" style="text;html=1;align=center;verticalAlign=middle;resizable=0;points=[];;autosize=1;" vertex="1" parent="1">
          <mxGeometry x="285.5" y="1525" width="20" height="20" as="geometry"/>
        </mxCell>
        <mxCell id="hTNmZNLpJQOjZrtLU-wa-168" value="&lt;b style=&quot;color: rgb(34 , 34 , 34) ; font-family: &amp;#34;arial&amp;#34; , sans-serif ; font-size: 16px ; text-align: left ; white-space: normal ; background-color: rgb(255 , 255 , 255)&quot;&gt;ε&lt;/b&gt;" style="text;html=1;align=center;verticalAlign=middle;resizable=0;points=[];;autosize=1;" vertex="1" parent="1">
          <mxGeometry x="995.5" y="1610" width="20" height="20" as="geometry"/>
        </mxCell>
        <mxCell id="hTNmZNLpJQOjZrtLU-wa-169" value="5" style="text;html=1;align=center;verticalAlign=middle;resizable=0;points=[];;autosize=1;" vertex="1" parent="1">
          <mxGeometry x="98.5" y="1380" width="20" height="20" as="geometry"/>
        </mxCell>
        <mxCell id="hTNmZNLpJQOjZrtLU-wa-170" value="Remove a0" style="text;html=1;align=center;verticalAlign=middle;resizable=0;points=[];;autosize=1;" vertex="1" parent="1">
          <mxGeometry x="155.5" y="1380" width="80" height="20" as="geometry"/>
        </mxCell>
        <mxCell id="hTNmZNLpJQOjZrtLU-wa-171" value="end" style="ellipse;shape=doubleEllipse;whiteSpace=wrap;html=1;" vertex="1" parent="1">
          <mxGeometry x="1017.5" y="1510" width="80" height="80" as="geometry"/>
        </mxCell>
        <mxCell id="hTNmZNLpJQOjZrtLU-wa-175" style="edgeStyle=orthogonalEdgeStyle;curved=1;rounded=0;orthogonalLoop=1;jettySize=auto;html=1;exitX=1;exitY=0.5;exitDx=0;exitDy=0;entryX=0.5;entryY=1;entryDx=0;entryDy=0;" edge="1" parent="1" source="hTNmZNLpJQOjZrtLU-wa-177" target="hTNmZNLpJQOjZrtLU-wa-171">
          <mxGeometry relative="1" as="geometry"/>
        </mxCell>
        <mxCell id="hTNmZNLpJQOjZrtLU-wa-176" style="edgeStyle=orthogonalEdgeStyle;curved=1;rounded=0;orthogonalLoop=1;jettySize=auto;html=1;exitX=0.5;exitY=1;exitDx=0;exitDy=0;entryX=0.5;entryY=1;entryDx=0;entryDy=0;" edge="1" parent="1" source="hTNmZNLpJQOjZrtLU-wa-177" target="hTNmZNLpJQOjZrtLU-wa-151">
          <mxGeometry relative="1" as="geometry"/>
        </mxCell>
        <mxCell id="hTNmZNLpJQOjZrtLU-wa-177" value="a1" style="ellipse;whiteSpace=wrap;html=1;aspect=fixed;" vertex="1" parent="1">
          <mxGeometry x="878.5" y="1570" width="80" height="80" as="geometry"/>
        </mxCell>
        <mxCell id="hTNmZNLpJQOjZrtLU-wa-179" value="g r* g r&lt;span style=&quot;font-size: 10px&quot;&gt;&lt;sup&gt;+&amp;nbsp;&lt;/sup&gt;&lt;/span&gt;&lt;b style=&quot;color: rgb(34 , 34 , 34) ; font-family: &amp;#34;arial&amp;#34; , sans-serif ; font-size: 16px ; text-align: left ; white-space: normal ; background-color: rgb(255 , 255 , 255)&quot;&gt;ε&lt;/b&gt;" style="text;html=1;align=center;verticalAlign=middle;resizable=0;points=[];;autosize=1;" vertex="1" parent="1">
          <mxGeometry x="731" y="1438" width="70" height="20" as="geometry"/>
        </mxCell>
        <mxCell id="hTNmZNLpJQOjZrtLU-wa-180" value="g r* g g U g r&lt;sup&gt;*&lt;/sup&gt;&amp;nbsp;g r g&amp;nbsp;" style="text;html=1;align=center;verticalAlign=middle;resizable=0;points=[];;autosize=1;" vertex="1" parent="1">
          <mxGeometry x="628" y="1580" width="120" height="20" as="geometry"/>
        </mxCell>
        <mxCell id="hTNmZNLpJQOjZrtLU-wa-183" value="=" style="text;html=1;align=center;verticalAlign=middle;resizable=0;points=[];;autosize=1;" vertex="1" parent="1">
          <mxGeometry x="795" y="1428" width="20" height="20" as="geometry"/>
        </mxCell>
        <mxCell id="hTNmZNLpJQOjZrtLU-wa-184" value="g r* g r&lt;span style=&quot;font-size: 10px&quot;&gt;&lt;sup&gt;+&amp;nbsp;&lt;/sup&gt;&lt;/span&gt;" style="text;html=1;align=center;verticalAlign=middle;resizable=0;points=[];;autosize=1;" vertex="1" parent="1">
          <mxGeometry x="815" y="1418" width="60" height="20" as="geometry"/>
        </mxCell>
        <mxCell id="hTNmZNLpJQOjZrtLU-wa-186" style="edgeStyle=orthogonalEdgeStyle;orthogonalLoop=1;jettySize=auto;html=1;exitX=1;exitY=0.5;exitDx=0;exitDy=0;entryX=0;entryY=0.5;entryDx=0;entryDy=0;rounded=1;" edge="1" parent="1" source="hTNmZNLpJQOjZrtLU-wa-187" target="hTNmZNLpJQOjZrtLU-wa-190">
          <mxGeometry relative="1" as="geometry"/>
        </mxCell>
        <mxCell id="hTNmZNLpJQOjZrtLU-wa-187" value="s" style="ellipse;whiteSpace=wrap;html=1;aspect=fixed;" vertex="1" parent="1">
          <mxGeometry x="285" y="1890" width="80" height="80" as="geometry"/>
        </mxCell>
        <mxCell id="hTNmZNLpJQOjZrtLU-wa-188" style="edgeStyle=orthogonalEdgeStyle;curved=1;rounded=0;orthogonalLoop=1;jettySize=auto;html=1;exitX=1;exitY=1;exitDx=0;exitDy=0;entryX=0.5;entryY=1;entryDx=0;entryDy=0;" edge="1" parent="1" source="hTNmZNLpJQOjZrtLU-wa-190" target="hTNmZNLpJQOjZrtLU-wa-205">
          <mxGeometry relative="1" as="geometry">
            <Array as="points">
              <mxPoint x="493" y="2000"/>
              <mxPoint x="1022" y="2000"/>
            </Array>
            <mxPoint x="843.003503613649" y="1990.5294117647059" as="targetPoint"/>
          </mxGeometry>
        </mxCell>
        <mxCell id="hTNmZNLpJQOjZrtLU-wa-221" style="edgeStyle=orthogonalEdgeStyle;curved=1;rounded=0;orthogonalLoop=1;jettySize=auto;html=1;exitX=0;exitY=1;exitDx=0;exitDy=0;entryX=0.5;entryY=1;entryDx=0;entryDy=0;" edge="1" parent="1" source="hTNmZNLpJQOjZrtLU-wa-190" target="hTNmZNLpJQOjZrtLU-wa-187">
          <mxGeometry relative="1" as="geometry">
            <Array as="points">
              <mxPoint x="436" y="1991"/>
              <mxPoint x="325" y="1991"/>
            </Array>
          </mxGeometry>
        </mxCell>
        <mxCell id="hTNmZNLpJQOjZrtLU-wa-223" style="edgeStyle=orthogonalEdgeStyle;curved=1;rounded=0;orthogonalLoop=1;jettySize=auto;html=1;exitX=1;exitY=0;exitDx=0;exitDy=0;entryX=0.5;entryY=0;entryDx=0;entryDy=0;" edge="1" parent="1" source="hTNmZNLpJQOjZrtLU-wa-190" target="hTNmZNLpJQOjZrtLU-wa-205">
          <mxGeometry relative="1" as="geometry">
            <Array as="points">
              <mxPoint x="493" y="1860"/>
              <mxPoint x="1022" y="1860"/>
            </Array>
          </mxGeometry>
        </mxCell>
        <mxCell id="hTNmZNLpJQOjZrtLU-wa-190" value="q0" style="ellipse;whiteSpace=wrap;html=1;aspect=fixed;" vertex="1" parent="1">
          <mxGeometry x="425" y="1890" width="80" height="80" as="geometry"/>
        </mxCell>
        <mxCell id="hTNmZNLpJQOjZrtLU-wa-191" style="edgeStyle=orthogonalEdgeStyle;curved=1;orthogonalLoop=1;jettySize=auto;html=1;exitX=0;exitY=0;exitDx=0;exitDy=0;entryX=0.5;entryY=0;entryDx=0;entryDy=0;" edge="1" parent="1" source="hTNmZNLpJQOjZrtLU-wa-187" target="hTNmZNLpJQOjZrtLU-wa-187">
          <mxGeometry relative="1" as="geometry">
            <Array as="points">
              <mxPoint x="297" y="1850"/>
              <mxPoint x="325" y="1850"/>
            </Array>
          </mxGeometry>
        </mxCell>
        <mxCell id="hTNmZNLpJQOjZrtLU-wa-192" style="edgeStyle=orthogonalEdgeStyle;curved=1;orthogonalLoop=1;jettySize=auto;html=1;exitX=0;exitY=0;exitDx=0;exitDy=0;entryX=0.5;entryY=0;entryDx=0;entryDy=0;" edge="1" parent="1" source="hTNmZNLpJQOjZrtLU-wa-190" target="hTNmZNLpJQOjZrtLU-wa-190">
          <mxGeometry relative="1" as="geometry">
            <Array as="points">
              <mxPoint x="437" y="1850"/>
              <mxPoint x="465" y="1850"/>
            </Array>
          </mxGeometry>
        </mxCell>
        <mxCell id="hTNmZNLpJQOjZrtLU-wa-194" value="r" style="text;html=1;align=center;verticalAlign=middle;resizable=0;points=[];;autosize=1;" vertex="1" parent="1">
          <mxGeometry x="300.5" y="1831" width="20" height="20" as="geometry"/>
        </mxCell>
        <mxCell id="hTNmZNLpJQOjZrtLU-wa-195" value="r U g r* g g U g r* g r g g&amp;nbsp;" style="text;html=1;align=center;verticalAlign=middle;resizable=0;points=[];;autosize=1;" vertex="1" parent="1">
          <mxGeometry x="395" y="1821" width="150" height="20" as="geometry"/>
        </mxCell>
        <mxCell id="hTNmZNLpJQOjZrtLU-wa-197" value="g" style="text;html=1;align=center;verticalAlign=middle;resizable=0;points=[];;autosize=1;" vertex="1" parent="1">
          <mxGeometry x="385" y="1905" width="20" height="20" as="geometry"/>
        </mxCell>
        <mxCell id="hTNmZNLpJQOjZrtLU-wa-198" style="edgeStyle=orthogonalEdgeStyle;curved=1;orthogonalLoop=1;jettySize=auto;html=1;exitX=1;exitY=0.5;exitDx=0;exitDy=0;entryX=0;entryY=0.5;entryDx=0;entryDy=0;" edge="1" parent="1" source="hTNmZNLpJQOjZrtLU-wa-199" target="hTNmZNLpJQOjZrtLU-wa-187">
          <mxGeometry relative="1" as="geometry"/>
        </mxCell>
        <mxCell id="hTNmZNLpJQOjZrtLU-wa-199" value="start" style="ellipse;whiteSpace=wrap;html=1;aspect=fixed;" vertex="1" parent="1">
          <mxGeometry x="160" y="1890" width="80" height="80" as="geometry"/>
        </mxCell>
        <mxCell id="hTNmZNLpJQOjZrtLU-wa-200" value="" style="endArrow=classic;html=1;entryX=0;entryY=0.5;entryDx=0;entryDy=0;" edge="1" parent="1" target="hTNmZNLpJQOjZrtLU-wa-199">
          <mxGeometry width="50" height="50" relative="1" as="geometry">
            <mxPoint x="100" y="1930" as="sourcePoint"/>
            <mxPoint x="130" y="2090" as="targetPoint"/>
          </mxGeometry>
        </mxCell>
        <mxCell id="hTNmZNLpJQOjZrtLU-wa-201" value="&lt;b style=&quot;color: rgb(34 , 34 , 34) ; font-family: &amp;#34;arial&amp;#34; , sans-serif ; font-size: 16px ; text-align: left ; white-space: normal ; background-color: rgb(255 , 255 , 255)&quot;&gt;ε&lt;/b&gt;" style="text;html=1;align=center;verticalAlign=middle;resizable=0;points=[];;autosize=1;" vertex="1" parent="1">
          <mxGeometry x="250" y="1905" width="20" height="20" as="geometry"/>
        </mxCell>
        <mxCell id="hTNmZNLpJQOjZrtLU-wa-203" value="5" style="text;html=1;align=center;verticalAlign=middle;resizable=0;points=[];;autosize=1;" vertex="1" parent="1">
          <mxGeometry x="63" y="1760" width="20" height="20" as="geometry"/>
        </mxCell>
        <mxCell id="hTNmZNLpJQOjZrtLU-wa-204" value="Remove a1" style="text;html=1;align=center;verticalAlign=middle;resizable=0;points=[];;autosize=1;" vertex="1" parent="1">
          <mxGeometry x="120" y="1760" width="80" height="20" as="geometry"/>
        </mxCell>
        <mxCell id="hTNmZNLpJQOjZrtLU-wa-205" value="end" style="ellipse;shape=doubleEllipse;whiteSpace=wrap;html=1;" vertex="1" parent="1">
          <mxGeometry x="982" y="1890" width="80" height="80" as="geometry"/>
        </mxCell>
        <mxCell id="hTNmZNLpJQOjZrtLU-wa-210" value="g r* g g U g r&lt;sup&gt;*&lt;/sup&gt;&amp;nbsp;g r g&amp;nbsp;&lt;b style=&quot;color: rgb(34 , 34 , 34) ; font-family: &amp;#34;arial&amp;#34; , sans-serif ; font-size: 16px ; text-align: left ; white-space: normal ; background-color: rgb(255 , 255 , 255)&quot;&gt;ε&lt;/b&gt;" style="text;html=1;align=center;verticalAlign=middle;resizable=0;points=[];;autosize=1;" vertex="1" parent="1">
          <mxGeometry x="638" y="1960" width="130" height="20" as="geometry"/>
        </mxCell>
        <mxCell id="hTNmZNLpJQOjZrtLU-wa-212" value="g r* g r&lt;span style=&quot;font-size: 10px&quot;&gt;&lt;sup&gt;+&amp;nbsp;&lt;/sup&gt;&lt;/span&gt;" style="text;html=1;align=center;verticalAlign=middle;resizable=0;points=[];;autosize=1;" vertex="1" parent="1">
          <mxGeometry x="731" y="1841" width="60" height="20" as="geometry"/>
        </mxCell>
        <mxCell id="hTNmZNLpJQOjZrtLU-wa-216" value="=" style="text;html=1;align=center;verticalAlign=middle;resizable=0;points=[];;autosize=1;" vertex="1" parent="1">
          <mxGeometry x="758" y="1950" width="20" height="20" as="geometry"/>
        </mxCell>
        <mxCell id="hTNmZNLpJQOjZrtLU-wa-217" value="g r* g g U g r&lt;sup&gt;*&lt;/sup&gt;&amp;nbsp;g r g&amp;nbsp;" style="text;html=1;align=center;verticalAlign=middle;resizable=0;points=[];;autosize=1;" vertex="1" parent="1">
          <mxGeometry x="773" y="1940" width="120" height="20" as="geometry"/>
        </mxCell>
        <mxCell id="hTNmZNLpJQOjZrtLU-wa-225" value="g r* g g U g r* g r g r" style="text;html=1;align=center;verticalAlign=middle;resizable=0;points=[];;autosize=1;" vertex="1" parent="1">
          <mxGeometry x="332" y="2000" width="120" height="20" as="geometry"/>
        </mxCell>
        <mxCell id="hTNmZNLpJQOjZrtLU-wa-252" style="edgeStyle=orthogonalEdgeStyle;curved=1;rounded=0;orthogonalLoop=1;jettySize=auto;html=1;exitX=1;exitY=0.5;exitDx=0;exitDy=0;entryX=0;entryY=0.5;entryDx=0;entryDy=0;" edge="1" parent="1" source="hTNmZNLpJQOjZrtLU-wa-228" target="hTNmZNLpJQOjZrtLU-wa-244">
          <mxGeometry relative="1" as="geometry"/>
        </mxCell>
        <mxCell id="hTNmZNLpJQOjZrtLU-wa-228" value="s" style="ellipse;whiteSpace=wrap;html=1;aspect=fixed;" vertex="1" parent="1">
          <mxGeometry x="291.5" y="2190" width="80" height="80" as="geometry"/>
        </mxCell>
        <mxCell id="hTNmZNLpJQOjZrtLU-wa-238" style="edgeStyle=orthogonalEdgeStyle;curved=1;orthogonalLoop=1;jettySize=auto;html=1;exitX=1;exitY=0.5;exitDx=0;exitDy=0;entryX=0;entryY=0.5;entryDx=0;entryDy=0;" edge="1" parent="1" source="hTNmZNLpJQOjZrtLU-wa-239" target="hTNmZNLpJQOjZrtLU-wa-228">
          <mxGeometry relative="1" as="geometry"/>
        </mxCell>
        <mxCell id="hTNmZNLpJQOjZrtLU-wa-239" value="start" style="ellipse;whiteSpace=wrap;html=1;aspect=fixed;" vertex="1" parent="1">
          <mxGeometry x="166.5" y="2190" width="80" height="80" as="geometry"/>
        </mxCell>
        <mxCell id="hTNmZNLpJQOjZrtLU-wa-240" value="" style="endArrow=classic;html=1;entryX=0;entryY=0.5;entryDx=0;entryDy=0;" edge="1" parent="1" target="hTNmZNLpJQOjZrtLU-wa-239">
          <mxGeometry width="50" height="50" relative="1" as="geometry">
            <mxPoint x="106.5" y="2230" as="sourcePoint"/>
            <mxPoint x="136.5" y="2390" as="targetPoint"/>
          </mxGeometry>
        </mxCell>
        <mxCell id="hTNmZNLpJQOjZrtLU-wa-241" value="&lt;b style=&quot;color: rgb(34 , 34 , 34) ; font-family: &amp;#34;arial&amp;#34; , sans-serif ; font-size: 16px ; text-align: left ; white-space: normal ; background-color: rgb(255 , 255 , 255)&quot;&gt;ε&lt;/b&gt;" style="text;html=1;align=center;verticalAlign=middle;resizable=0;points=[];;autosize=1;" vertex="1" parent="1">
          <mxGeometry x="256.5" y="2205" width="20" height="20" as="geometry"/>
        </mxCell>
        <mxCell id="hTNmZNLpJQOjZrtLU-wa-242" value="6" style="text;html=1;align=center;verticalAlign=middle;resizable=0;points=[];;autosize=1;" vertex="1" parent="1">
          <mxGeometry x="69.5" y="2060" width="20" height="20" as="geometry"/>
        </mxCell>
        <mxCell id="hTNmZNLpJQOjZrtLU-wa-243" value="Remove q0" style="text;html=1;align=center;verticalAlign=middle;resizable=0;points=[];;autosize=1;" vertex="1" parent="1">
          <mxGeometry x="126.5" y="2060" width="80" height="20" as="geometry"/>
        </mxCell>
        <mxCell id="hTNmZNLpJQOjZrtLU-wa-244" value="end" style="ellipse;shape=doubleEllipse;whiteSpace=wrap;html=1;" vertex="1" parent="1">
          <mxGeometry x="988.5" y="2190" width="80" height="80" as="geometry"/>
        </mxCell>
        <mxCell id="hTNmZNLpJQOjZrtLU-wa-253" style="edgeStyle=orthogonalEdgeStyle;curved=1;rounded=0;orthogonalLoop=1;jettySize=auto;html=1;exitX=1;exitY=1;exitDx=0;exitDy=0;entryX=0.5;entryY=1;entryDx=0;entryDy=0;" edge="1" parent="1" source="hTNmZNLpJQOjZrtLU-wa-228" target="hTNmZNLpJQOjZrtLU-wa-228">
          <mxGeometry relative="1" as="geometry">
            <Array as="points">
              <mxPoint x="360" y="2320"/>
              <mxPoint x="332" y="2320"/>
            </Array>
          </mxGeometry>
        </mxCell>
        <mxCell id="hTNmZNLpJQOjZrtLU-wa-254" value="g r* (g r* g g U g r* g r g g)* g r* g r&lt;sup&gt;+&lt;/sup&gt;&amp;nbsp;U g r* g g U g r* g r g" style="text;html=1;align=center;verticalAlign=middle;resizable=0;points=[];;autosize=1;" vertex="1" parent="1">
          <mxGeometry x="386" y="2198" width="320" height="20" as="geometry"/>
        </mxCell>
        <mxCell id="hTNmZNLpJQOjZrtLU-wa-255" value="r* U g r*(g r* g g U g r* g r g g)* g r* g g U g r* g r g r" style="text;html=1;align=center;verticalAlign=middle;resizable=0;points=[];;autosize=1;" vertex="1" parent="1">
          <mxGeometry x="200" y="2340" width="290" height="20" as="geometry"/>
        </mxCell>
        <mxCell id="hTNmZNLpJQOjZrtLU-wa-271" style="edgeStyle=orthogonalEdgeStyle;curved=1;orthogonalLoop=1;jettySize=auto;html=1;exitX=1;exitY=0.5;exitDx=0;exitDy=0;entryX=0;entryY=0.5;entryDx=0;entryDy=0;" edge="1" parent="1" source="hTNmZNLpJQOjZrtLU-wa-272" target="hTNmZNLpJQOjZrtLU-wa-277">
          <mxGeometry relative="1" as="geometry">
            <mxPoint x="295.7142857142858" y="2560.2857142857147" as="targetPoint"/>
            <Array as="points">
              <mxPoint x="250" y="2480"/>
              <mxPoint x="992" y="2480"/>
            </Array>
          </mxGeometry>
        </mxCell>
        <mxCell id="hTNmZNLpJQOjZrtLU-wa-272" value="start" style="ellipse;whiteSpace=wrap;html=1;aspect=fixed;" vertex="1" parent="1">
          <mxGeometry x="170" y="2520" width="80" height="80" as="geometry"/>
        </mxCell>
        <mxCell id="hTNmZNLpJQOjZrtLU-wa-273" value="" style="endArrow=classic;html=1;entryX=0;entryY=0.5;entryDx=0;entryDy=0;" edge="1" parent="1" target="hTNmZNLpJQOjZrtLU-wa-272">
          <mxGeometry width="50" height="50" relative="1" as="geometry">
            <mxPoint x="110" y="2560" as="sourcePoint"/>
            <mxPoint x="140" y="2720" as="targetPoint"/>
          </mxGeometry>
        </mxCell>
        <mxCell id="hTNmZNLpJQOjZrtLU-wa-275" value="7" style="text;html=1;align=center;verticalAlign=middle;resizable=0;points=[];;autosize=1;" vertex="1" parent="1">
          <mxGeometry x="73" y="2390" width="20" height="20" as="geometry"/>
        </mxCell>
        <mxCell id="hTNmZNLpJQOjZrtLU-wa-276" value="Remove s" style="text;html=1;align=center;verticalAlign=middle;resizable=0;points=[];;autosize=1;" vertex="1" parent="1">
          <mxGeometry x="135" y="2390" width="70" height="20" as="geometry"/>
        </mxCell>
        <mxCell id="hTNmZNLpJQOjZrtLU-wa-277" value="end" style="ellipse;shape=doubleEllipse;whiteSpace=wrap;html=1;" vertex="1" parent="1">
          <mxGeometry x="992" y="2520" width="80" height="80" as="geometry"/>
        </mxCell>
        <mxCell id="hTNmZNLpJQOjZrtLU-wa-292" value="&lt;h1&gt;&lt;b style=&quot;color: rgb(34 , 34 , 34) ; font-family: &amp;#34;arial&amp;#34; , sans-serif ; font-size: 16px ; background-color: rgb(255 , 255 , 255)&quot;&gt;ε&amp;nbsp;&lt;/b&gt;&lt;span style=&quot;font-weight: 400 ; color: rgb(34 , 34 , 34) ; font-family: &amp;#34;arial&amp;#34; , sans-serif ; font-size: 16px ; background-color: rgb(255 , 255 , 255)&quot;&gt;(r* U g r* ( g r* g g U g r* g r g g)* g r* g g U g r* g r g r)* g r* ( g r* g g U g r* g r g g)* g r* g r&lt;sup&gt;+&lt;/sup&gt; U g r* g g U g r* g r g&amp;nbsp;&amp;nbsp;&lt;/span&gt;&lt;/h1&gt;" style="text;html=1;strokeColor=none;fillColor=none;spacing=5;spacingTop=-20;whiteSpace=wrap;overflow=hidden;rounded=0;" vertex="1" parent="1">
          <mxGeometry x="207" y="2430" width="939" height="120" as="geometry"/>
        </mxCell>
      </root>
    </mxGraphModel>
  </diagram>
</mxfile>
